<svg xmlns="http://www.w3.org/2000/svg" xmlns:xlink="http://www.w3.org/1999/xlink" version="1.1" id="Layer_1" x="0px" y="0px" width="100px" height="100px" viewBox="0 0 100 100" enable-background="new 0 0 100 100" xml:space="preserve">
<g>
	<path d="M24.583,76.432c3.01,3.688,13.785,7.596,24.957,7.596c11.277,0,22.538-3.795,25.071-7.188   c0.531-0.712,1.19-1.527,1.315-2.621c-0.141-1.741-0.364-2.596-0.915-3.08c-3.393,3.939-13.973,7.389-25.472,7.389   c-11.5,0-21.949-3.838-25.342-7.777c-0.539,0.475-0.757,1.528-0.928,3.312C23.552,74.938,23.959,75.667,24.583,76.432z"/>
	<path d="M75.412,77.688c-2.68,3.59-13.965,7.59-25.872,7.59c-11.453,0-22.55-4.115-25.728-7.959   c-0.27-0.326-0.448-0.662-0.667-1.193c-0.107,1.851-0.18,3.854-0.18,4.412C22.966,85.764,34.864,90,49.54,90   c14.677,0,26.574-4.236,26.574-9.463c0-0.533,0.066-2.645,0-4.318C75.833,76.969,75.651,77.367,75.412,77.688z"/>
</g>
<path d="M49.385,14.5c-18.363,0-33.25,14.887-33.25,33.25c0,8.244,3.007,15.781,7.975,21.591c0.003-0.002,0.005-0.005,0.007-0.007  c3.383,3.927,13.801,7.754,25.267,7.754c9.575,0,18.836-2.338,23.461-5.713c6.406-5.906,9.791-14.264,9.791-23.625  C82.635,29.387,67.749,14.5,49.385,14.5z M73.667,30.833c0.553,0,1,0.448,1,1s-0.447,1-1,1s-1-0.448-1-1  S73.114,30.833,73.667,30.833z M73,58c0.553,0,1,0.448,1,1s-0.447,1-1,1s-1-0.448-1-1S72.447,58,73,58z M67.833,51.667  c0.553,0,1,0.448,1,1s-0.447,1-1,1s-1-0.448-1-1S67.28,51.667,67.833,51.667z M66.75,65.125c0,0.552-0.447,1-1,1s-1-0.448-1-1  s0.447-1,1-1S66.75,64.573,66.75,65.125z M65.667,36.833c0,0.552-0.447,1-1,1s-1-0.448-1-1s0.447-1,1-1S65.667,36.282,65.667,36.833  z M64.167,46.667c0,0.552-0.447,1-1,1s-1-0.448-1-1s0.447-1,1-1S64.167,46.115,64.167,46.667z M63.333,26.833c0.553,0,1,0.448,1,1  s-0.447,1-1,1s-1-0.448-1-1S62.78,26.833,63.333,26.833z M49.458,16.75c7.154,0,12.955,2.743,12.955,6.125S56.612,29,49.458,29  s-12.955-2.743-12.955-6.125S42.304,16.75,49.458,16.75z M61.375,58.125c0,0.552-0.447,1-1,1s-1-0.448-1-1s0.447-1,1-1  S61.375,57.573,61.375,58.125z M54.833,43c0,0.552-0.447,1-1,1s-1-0.448-1-1s0.447-1,1-1S54.833,42.448,54.833,43z M51.333,53.167  c0,0.552-0.447,1-1,1c-0.552,0-1-0.448-1-1s0.448-1,1-1C50.886,52.167,51.333,52.615,51.333,53.167z M47,35.333c0-0.552,0.447-1,1-1  s1,0.448,1,1s-0.447,1-1,1S47,35.886,47,35.333z M47.125,61.375c0,0.552-0.447,1-1,1s-1-0.448-1-1s0.447-1,1-1  S47.125,60.823,47.125,61.375z M39.25,56.75c0,0.552-0.447,1-1,1c-0.552,0-1-0.448-1-1s0.448-1,1-1  C38.803,55.75,39.25,56.198,39.25,56.75z M38.333,30.5c0-0.552,0.447-1,1-1s1,0.448,1,1s-0.447,1-1,1S38.333,31.052,38.333,30.5z   M38.666,48c0-0.552,0.448-1,1-1c0.553,0,1,0.448,1,1s-0.447,1-1,1C39.114,49,38.666,48.552,38.666,48z M37.333,37.667  c0.552,0,1,0.448,1,1s-0.448,1-1,1s-1-0.448-1-1S36.781,37.667,37.333,37.667z M29.208,28.375c0.552,0,1,0.448,1,1s-0.448,1-1,1  s-1-0.448-1-1S28.656,28.375,29.208,28.375z M30.333,48c0,0.552-0.447,1-1,1c-0.552,0-1-0.448-1-1s0.448-1,1-1  C29.886,47,30.333,47.448,30.333,48z M23.666,40.167c0-0.552,0.448-1,1-1c0.553,0,1,0.448,1,1s-0.447,1-1,1  C24.114,41.167,23.666,40.719,23.666,40.167z M24.25,58.125c0-0.552,0.447-1,1-1s1,0.448,1,1s-0.447,1-1,1  S24.25,58.677,24.25,58.125z M71.344,70.344c-4.366,2.888-13.123,5.014-21.916,5.014c-10.943,0-20.886-3.653-24.114-7.4l0.028,0.002  c-0.055-0.05,1.908-1.084,1.908-1.084s6.094-2.438,12.344-2.438c9.625,0,16.469,4.969,23.562,4.969  c4.062,0,11.312-2.125,11.312-2.125S72.938,69.125,71.344,70.344z M74,44.833c-0.553,0-1-0.448-1-1s0.447-1,1-1s1,0.448,1,1  S74.553,44.833,74,44.833z M77.833,52.667c-0.553,0-1-0.448-1-1s0.447-1,1-1s1,0.448,1,1S78.386,52.667,77.833,52.667z"/>
</svg>